<svg xmlns="http://www.w3.org/2000/svg" viewBox="0 0 1000 400">
  <defs>
    <linearGradient id="leafGrad" x1="0%" y1="0%" x2="100%" y2="100%">
      <stop offset="0%" stop-color="#9CCC65"/>
      <stop offset="100%" stop-color="#558B2F"/>
    </linearGradient>
  </defs>
  <ellipse cx="180" cy="85" rx="70" ry="48" fill="url(#leafGrad)" transform="rotate(-15 180 85)"/>
  <path d="M155 65 Q180 42 218 65" stroke="#2E7D32" stroke-width="3" fill="none"/>
  <path d="M75 240 Q95 140 150 95 Q205 50 270 70 Q335 90 385 150 Q435 210 385 265 Q335 320 260 300 Q185 280 120 310 Q55 340 75 240" fill="#2E7D32"/>
  <path d="M410 245 Q440 165 505 150 Q570 135 630 200 Q690 265 630 305 Q570 345 505 320 Q440 295 410 245" fill="#2E7D32"/>
  <path d="M660 240 Q690 165 755 150 Q820 135 870 200 Q920 265 860 305 Q800 345 735 320 Q670 295 660 240" fill="#2E7D32"/>
  <path d="M85 335 Q250 305 480 315" stroke="#8D6E63" stroke-width="18" fill="none" stroke-linecap="round"/>
  <path d="M560 315 L700 315" stroke="#8D6E63" stroke-width="18" fill="none" stroke-linecap="round"/>
  <g transform="translate(760, 310)">
    <ellipse cx="32" cy="17" rx="26" ry="20" fill="#8D6E63"/>
    <rect x="5" y="12" width="25" height="10" rx="5" fill="#8D6E63"/>
    <ellipse cx="-7" cy="17" rx="17" ry="15" fill="#8D6E63"/>
  </g>
</svg>